<?xml version="1.0" encoding="utf-8"?>
<!-- Generator: Adobe Illustrator 24.1.0, SVG Export Plug-In . SVG Version: 6.00 Build 0)  -->
<svg version="1.1" id="Layer_1" xmlns="http://www.w3.org/2000/svg" xmlns:xlink="http://www.w3.org/1999/xlink" x="0px" y="0px"
	 viewBox="0 0 24 24" style="enable-background:new 0 0 24 24;" xml:space="preserve">
<style type="text/css">
	.st0{fill:#BA1BB3;}
</style>
<text transform="matrix(1 0 0 1 -39.208 7.65)" style="font-family:'MyriadPro-Regular'; font-size:12px;">BA1BB3</text>
<g>
	<path class="st0" d="M23.5,11.99c0.02,6.33-5.12,11.49-11.47,11.51C5.68,23.52,0.52,18.37,0.5,12.01C0.48,5.68,5.62,0.53,11.97,0.5
		C18.32,0.47,23.48,5.62,23.5,11.99z M4.39,16.58c0.08,0,0.13,0.01,0.18,0.01c1.61,0,3.22,0,4.84,0c0.23,0,0.47-0.02,0.69-0.07
		c1.12-0.23,1.97-0.8,2.22-1.98c0.09-0.41,0.11-0.86,0.06-1.28c-0.12-1.14-0.6-1.68-1.58-1.88c0.1-0.04,0.18-0.08,0.25-0.11
		c0.37-0.15,0.64-0.39,0.82-0.75c0.47-0.92,0.15-2.32-0.67-2.95c-0.54-0.41-1.16-0.56-1.82-0.56c-1.59,0-3.17,0-4.76,0
		c-0.08,0-0.15,0.01-0.24,0.01C4.39,10.21,4.39,13.38,4.39,16.58z M19.89,13.61c-0.05-0.55-0.05-1.06-0.14-1.55
		c-0.24-1.26-0.91-2.17-2.21-2.49c-0.43-0.1-0.89-0.14-1.33-0.12c-1.43,0.07-2.5,0.72-3.06,2.07c-0.37,0.89-0.46,1.81-0.22,2.76
		c0.33,1.28,1.13,2.08,2.41,2.39c0.7,0.16,1.42,0.17,2.13,0.05c0.54-0.09,1.05-0.27,1.48-0.63c0.57-0.47,0.81-1.09,0.81-1.83
		c-0.57,0-1.11,0-1.67,0c-0.06,0.45-0.31,0.75-0.73,0.89c-0.46,0.15-0.93,0.19-1.4,0.05c-0.73-0.21-1.2-0.9-1.07-1.59
		C16.52,13.61,18.16,13.61,19.89,13.61z M18.37,7.59c-1.33,0-2.62,0-3.93,0c0,0.39,0,0.76,0,1.14c1.32,0,2.62,0,3.93,0
		C18.37,8.34,18.37,7.97,18.37,7.59z"/>
	<path class="st0" d="M6.59,14.89c0-0.87,0-1.7,0-2.56c0.37,0,0.73,0,1.09,0c0.53,0,1.05,0,1.58,0c0.57,0,0.95,0.3,1.07,0.85
		c0.03,0.14,0.05,0.29,0.05,0.44c0.02,0.83-0.38,1.26-1.21,1.27C8.32,14.9,7.47,14.89,6.59,14.89z"/>
	<path class="st0" d="M6.59,10.84c0-0.71,0-1.4,0-2.11c0.09,0,0.18-0.01,0.27-0.01c0.78,0,1.57,0,2.35,0c0.48,0,0.76,0.21,0.81,0.68
		c0.03,0.3,0.01,0.62-0.05,0.92c-0.06,0.34-0.3,0.52-0.64,0.53C8.42,10.85,7.52,10.84,6.59,10.84z"/>
	<path class="st0" d="M17.97,12.32c-1.05,0-2.08,0-3.11,0c0.05-0.84,0.8-1.49,1.69-1.48C17.4,10.86,17.95,11.42,17.97,12.32z"/>
</g>
</svg>
