<?xml version="1.0" encoding="utf-8"?>
<!-- Generator: Adobe Illustrator 24.1.0, SVG Export Plug-In . SVG Version: 6.00 Build 0)  -->
<svg version="1.1" id="Layer_1" xmlns="http://www.w3.org/2000/svg" xmlns:xlink="http://www.w3.org/1999/xlink" x="0px" y="0px"
	 viewBox="0 0 24 24" style="enable-background:new 0 0 24 24;" xml:space="preserve">
<style type="text/css">
	.st0{fill:none;stroke:#BA1BB3;stroke-width:0.5;stroke-miterlimit:10;}
	.st1{fill:#BA1BB3;}
</style>
<text transform="matrix(1 0 0 1 -39.208 7.65)" style="font-family:'MyriadPro-Regular'; font-size:12px;">BA1BB3</text>
<g>
	<path class="st0" d="M17.73,23.31H6.04c-1.33,0-2.4-1.08-2.4-2.4V3.04c0-1.33,1.08-2.4,2.4-2.4h11.69c1.33,0,2.4,1.08,2.4,2.4V20.9
		C20.13,22.23,19.06,23.31,17.73,23.31z"/>
	<path class="st1" d="M11.89,12.96c-1.2,0.02-2.39-0.05-3.55-0.36c-0.17-0.05-0.34-0.12-0.5-0.2c-0.27-0.13-0.39-0.33-0.33-0.62
		c0.18-0.95,0.81-1.61,1.63-2.14c0.47-0.3,1.02-0.52,1.43-0.72c-0.3-0.45-0.7-0.91-0.93-1.43c-0.42-0.93-0.13-1.95,0.64-2.54
		c0.77-0.6,1.85-0.72,2.74-0.29c1.14,0.54,1.62,1.81,1.06,2.95c-0.23,0.48-0.61,0.9-0.87,1.26c0.59,0.35,1.3,0.7,1.92,1.15
		c0.58,0.42,0.96,0.99,1.11,1.67c0.09,0.39-0.07,0.65-0.45,0.76c-0.49,0.15-0.99,0.3-1.5,0.35c-0.8,0.09-1.61,0.1-2.41,0.14
		c0.27-0.3,0.56-0.6,0.8-0.92c0.09-0.11,0.13-0.31,0.09-0.43c-0.17-0.54-0.4-1.06-0.57-1.59c-0.07-0.24-0.07-0.49-0.1-0.76
		c-0.11,0-0.34,0-0.45,0c-0.03,0.28-0.02,0.54-0.1,0.77c-0.17,0.52-0.36,1.04-0.57,1.55c-0.09,0.21-0.05,0.35,0.11,0.51
		C11.38,12.36,11.63,12.66,11.89,12.96z"/>
	<path class="st1" d="M18.19,18.85H5.62c-0.27,0-0.49,0.22-0.49,0.49v0c0,0.27,0.22,0.49,0.49,0.49h12.57
		c0.27,0,0.49-0.22,0.49-0.49v0C18.68,19.07,18.46,18.85,18.19,18.85z"/>
	<path class="st1" d="M18.19,16.87H5.62c-0.27,0-0.49,0.22-0.49,0.49l0,0c0,0.27,0.22,0.49,0.49,0.49h12.57
		c0.27,0,0.49-0.22,0.49-0.49l0,0C18.68,17.08,18.46,16.87,18.19,16.87z"/>
	<path class="st1" d="M18.19,14.97H5.62c-0.27,0-0.49,0.22-0.49,0.49v0c0,0.27,0.22,0.49,0.49,0.49h12.57
		c0.27,0,0.49-0.22,0.49-0.49v0C18.68,15.19,18.46,14.97,18.19,14.97z"/>
</g>
</svg>
