<?xml version="1.0" encoding="utf-8"?>
<!-- Generator: Adobe Illustrator 24.1.0, SVG Export Plug-In . SVG Version: 6.00 Build 0)  -->
<svg version="1.1" id="Layer_1" xmlns="http://www.w3.org/2000/svg" xmlns:xlink="http://www.w3.org/1999/xlink" x="0px" y="0px"
	 viewBox="0 0 24 24" style="enable-background:new 0 0 24 24;" xml:space="preserve">
<style type="text/css">
	.st0{fill:none;stroke:#BA1BB3;stroke-miterlimit:10;}
	.st1{fill:#BA1BB3;}
</style>
<g>
	<path class="st0" d="M18.5,23.3H5.3c-1.5,0-2.7-1.1-2.7-2.4V3c0-1.3,1.2-2.4,2.7-2.4h13.3c1.5,0,2.7,1.1,2.7,2.4v17.9
		C21.2,22.2,20,23.3,18.5,23.3z"/>
	<path class="st1" d="M11.9,13c-1.2,0-2.4-0.1-3.6-0.4c-0.2-0.1-0.3-0.1-0.5-0.2c-0.3-0.1-0.4-0.3-0.3-0.6c0.2-0.9,0.8-1.6,1.6-2.1
		c0.5-0.3,1-0.5,1.4-0.7C10.3,8.5,9.9,8,9.6,7.5c-0.4-0.9-0.1-2,0.6-2.5c0.8-0.6,1.9-0.7,2.7-0.3c1.1,0.5,1.6,1.8,1.1,3
		c-0.2,0.5-0.6,0.9-0.9,1.3c0.6,0.4,1.3,0.7,1.9,1.1c0.6,0.4,1,1,1.1,1.7c0.1,0.4-0.1,0.6-0.4,0.8c-0.5,0.1-1,0.3-1.5,0.4
		C13.5,12.9,12.7,12.9,11.9,13c0.3-0.3,0.6-0.6,0.8-0.9c0.1-0.1,0.1-0.3,0.1-0.4c-0.2-0.5-0.4-1.1-0.6-1.6c-0.1-0.2-0.1-0.5-0.1-0.8
		c-0.1,0-0.3,0-0.4,0c0,0.3,0,0.5-0.1,0.8c-0.2,0.5-0.4,1-0.6,1.6c-0.1,0.2-0.1,0.4,0.1,0.5C11.4,12.4,11.6,12.7,11.9,13z"/>
	<path class="st1" d="M18.2,18.9H5.6c-0.3,0-0.5,0.2-0.5,0.5l0,0c0,0.3,0.2,0.5,0.5,0.5h12.6c0.3,0,0.5-0.2,0.5-0.5l0,0
		C18.7,19.1,18.5,18.9,18.2,18.9z"/>
	<path class="st1" d="M18.2,16.9H5.6c-0.3,0-0.5,0.2-0.5,0.5l0,0c0,0.3,0.2,0.5,0.5,0.5h12.6c0.3,0,0.5-0.2,0.5-0.5l0,0
		C18.7,17.1,18.5,16.9,18.2,16.9z"/>
	<path class="st1" d="M18.2,15H5.6c-0.3,0-0.5,0.2-0.5,0.5l0,0c0,0.3,0.2,0.5,0.5,0.5h12.6c0.3,0,0.5-0.2,0.5-0.5l0,0
		C18.7,15.2,18.5,15,18.2,15z"/>
</g>
</svg>
