<?xml version="1.0" encoding="utf-8"?>
<!-- Generator: Adobe Illustrator 24.1.0, SVG Export Plug-In . SVG Version: 6.00 Build 0)  -->
<svg version="1.1" id="Layer_1" xmlns="http://www.w3.org/2000/svg" xmlns:xlink="http://www.w3.org/1999/xlink" x="0px" y="0px"
	 viewBox="0 0 24 24" style="enable-background:new 0 0 24 24;" xml:space="preserve">
<style type="text/css">
	.st0{fill:#BA1BB3;}
</style>
<g>
	<g>
		<path class="st0" d="M0.5,11.59c0.06-0.41,0.11-0.83,0.17-1.24c0.26-1.62,0.88-3.09,1.81-4.44c1.4-2.04,3.28-3.46,5.6-4.29
			c1.58-0.56,3.21-0.72,4.87-0.56c2.07,0.19,3.94,0.93,5.61,2.17c2.03,1.51,3.4,3.48,4.12,5.9c0.46,1.55,0.56,3.14,0.34,4.74
			c-0.44,3.16-2.01,5.66-4.52,7.58c-0.91,0.7-1.94,1.2-3.02,1.57c-0.5,0.17-0.84-0.07-0.84-0.59c0-0.98,0-1.96,0-2.94
			c0-0.49-0.03-0.98-0.24-1.42c-0.12-0.26-0.3-0.5-0.45-0.75c0.41-0.08,0.86-0.13,1.3-0.25c1.15-0.3,2.18-0.81,2.88-1.82
			c0.51-0.74,0.74-1.58,0.85-2.46c0.08-0.67,0.1-1.33-0.03-2c-0.14-0.74-0.46-1.39-0.96-1.96c-0.09-0.1-0.1-0.19-0.06-0.31
			c0.33-0.93,0.2-1.84-0.15-2.74c-0.02-0.06-0.11-0.11-0.18-0.12c-0.39-0.06-0.77,0.06-1.11,0.22c-0.57,0.27-1.12,0.58-1.69,0.86
			c-0.1,0.05-0.24,0.08-0.35,0.06c-1.76-0.44-3.52-0.44-5.29,0c-0.1,0.03-0.25,0-0.34-0.06C8.1,6.28,7.35,5.91,6.52,5.69
			c-0.01,0-0.03-0.01-0.04-0.01C5.95,5.57,5.86,5.63,5.7,6.15c-0.23,0.8-0.28,1.6,0,2.41c0.02,0.06,0,0.18-0.04,0.23
			c-0.95,1.08-1.16,2.36-1.03,3.73c0.08,0.81,0.27,1.58,0.63,2.31c0.51,1.02,1.37,1.65,2.41,2.01c0.62,0.21,1.28,0.3,1.93,0.45
			c0.03,0.01,0.07,0.01,0.07,0.01c-0.16,0.3-0.33,0.6-0.49,0.9c-0.05,0.1-0.09,0.22-0.1,0.34c-0.01,0.24-0.13,0.35-0.35,0.4
			c-0.72,0.19-1.43,0.32-2.11-0.1C6.27,18.61,6,18.3,5.79,17.94C5.46,17.39,5,16.98,4.38,16.8c-0.23-0.07-0.49-0.05-0.73-0.03
			c-0.15,0.01-0.2,0.13-0.1,0.26c0.1,0.12,0.2,0.27,0.33,0.35c0.61,0.35,0.95,0.91,1.22,1.52c0.16,0.35,0.3,0.7,0.6,0.97
			c0.47,0.43,1.05,0.59,1.66,0.62c0.53,0.02,1.07,0,1.64,0c0,0.32,0,0.69,0,1.07c0,0.29,0.01,0.57,0.01,0.86
			c0,0.53-0.35,0.79-0.85,0.62c-1.67-0.57-3.14-1.47-4.38-2.73c-1.2-1.23-2.11-2.64-2.67-4.27c-0.32-0.92-0.51-1.87-0.58-2.84
			c0-0.11-0.02-0.2-0.03-0.29C0.5,12.47,0.5,12.03,0.5,11.59z"/>
	</g>
</g>
</svg>
