<?xml version="1.0" encoding="utf-8"?>
<!-- Generator: Adobe Illustrator 24.1.0, SVG Export Plug-In . SVG Version: 6.00 Build 0)  -->
<svg version="1.1" id="Layer_1" xmlns="http://www.w3.org/2000/svg" xmlns:xlink="http://www.w3.org/1999/xlink" x="0px" y="0px"
	 viewBox="0 0 24 24" style="enable-background:new 0 0 24 24;" xml:space="preserve">
<style type="text/css">
	.st0{fill:none;stroke:#BA1BB3;stroke-miterlimit:10;}
</style>
<g>
	<g>
		<path class="st0" d="M6.23,1c3.65,0,7.29,0,10.94,0c0.07,0.01,0.14,0.03,0.21,0.04c0.61,0.07,1.21,0.2,1.77,0.47
			c2.41,1.14,3.7,3.04,3.74,5.71c0.05,3.32,0.01,6.65,0.01,9.97c0,1.29-0.35,2.48-1.1,3.53c-1.27,1.78-3.02,2.67-5.2,2.68
			c-3.27,0.01-6.53,0.01-9.8,0c-0.42,0-0.85-0.02-1.26-0.11c-2.54-0.56-4.16-2.1-4.85-4.61C0.59,18.34,0.56,18,0.5,17.67
			c0-3.65,0-7.29,0-10.94C0.54,6.5,0.56,6.27,0.61,6.04c0.57-2.54,2.11-4.16,4.61-4.86C5.55,1.09,5.89,1.06,6.23,1z M20.91,12.22
			c0-1.63,0-3.25,0-4.88c0-0.51-0.05-1.02-0.23-1.5c-0.63-1.77-2.16-2.85-4.08-2.85C13.34,2.98,10.07,2.98,6.81,3
			c-0.49,0-1,0.07-1.46,0.23c-1.79,0.6-2.86,2.15-2.86,4.09c0,3.26-0.01,6.52,0.01,9.77c0,0.49,0.07,1,0.22,1.46
			c0.6,1.78,2.14,2.86,4.06,2.87c3.28,0.01,6.56,0.01,9.84,0c1.46,0,2.64-0.59,3.51-1.77c0.56-0.76,0.78-1.63,0.78-2.57
			C20.91,15.46,20.91,13.84,20.91,12.22z"/>
		<path class="st0" d="M11.69,17.97c-3.17,0-5.78-2.61-5.77-5.78c0.01-3.18,2.62-5.78,5.78-5.76c3.17,0.02,5.75,2.6,5.76,5.77
			C17.47,15.36,14.86,17.97,11.69,17.97z M15.48,12.21c0.01-2.08-1.68-3.78-3.77-3.79c-2.08-0.01-3.78,1.68-3.79,3.77
			c-0.01,2.08,1.68,3.78,3.77,3.79C13.77,15.99,15.47,14.3,15.48,12.21z"/>
		<path class="st0" d="M17.71,4.75c0.8,0,1.47,0.67,1.46,1.46C19.16,7,18.5,7.65,17.71,7.65c-0.8,0-1.47-0.67-1.46-1.46
			C16.26,5.39,16.91,4.75,17.71,4.75z"/>
	</g>
</g>
</svg>
