<?xml version="1.0" encoding="utf-8"?>
<!-- Generator: Adobe Illustrator 24.1.0, SVG Export Plug-In . SVG Version: 6.00 Build 0)  -->
<svg version="1.1" id="Layer_1" xmlns="http://www.w3.org/2000/svg" xmlns:xlink="http://www.w3.org/1999/xlink" x="0px" y="0px"
	 viewBox="0 0 24 24" style="enable-background:new 0 0 24 24;" xml:space="preserve">
<style type="text/css">
	.st0{fill:#BA1BB3;}
</style>
<g>
	<g>
		<path class="st0" d="M0.25,12.21c0-2.9,0-5.8,0-8.7c0-1.86,1.19-3.04,3.06-3.05c5.9,0,11.8,0,17.69,0c1.46,0,2.59,0.82,2.91,2.15
			C23.97,2.87,24,3.14,24,3.41c0,5.88,0.01,11.77,0,17.65c0,1.72-1.22,2.93-2.95,2.94c-5.95,0-11.9,0-17.85,0
			c-1.73,0-2.95-1.22-2.96-2.93C0.24,18.12,0.25,15.17,0.25,12.21z M1.37,12.2c0,2.92,0,5.84,0,8.76c0,1.24,0.67,1.91,1.93,1.91
			c5.88,0,11.76,0,17.63,0c1.26,0,1.93-0.67,1.93-1.91c0-5.82,0-11.64,0-17.47c0-1.24-0.67-1.91-1.93-1.91c-5.88,0-11.76,0-17.63,0
			c-1.26,0-1.93,0.67-1.93,1.91C1.37,6.4,1.37,9.3,1.37,12.2z"/>
		<path class="st0" d="M13.26,9.54c0.66-0.2,1.3-0.49,1.96-0.59c2.57-0.42,4.69,1.05,5.21,3.57c0.11,0.54,0.16,1.1,0.17,1.66
			c0.02,1.89,0.01,3.78,0.01,5.67c0,0.62-0.18,0.79-0.81,0.79c-0.99,0-1.98,0-2.97,0c-0.56,0-0.75-0.19-0.75-0.75
			c0-1.77,0.01-3.53-0.01-5.3c0-0.36-0.07-0.74-0.2-1.08c-0.22-0.56-0.7-0.75-1.28-0.74c-0.57,0.01-0.96,0.28-1.14,0.79
			c-0.11,0.32-0.18,0.66-0.18,0.99c-0.02,1.78-0.01,3.55-0.01,5.33c0,0.56-0.18,0.75-0.74,0.75c-1.01,0-2.02,0-3.03,0
			c-0.55,0-0.74-0.18-0.74-0.72c0-3.44,0-6.88,0-10.31c0-0.55,0.18-0.72,0.73-0.72c0.99,0,1.98,0,2.97,0
			C13.07,8.88,13.21,9,13.26,9.54z"/>
		<path class="st0" d="M3.64,14.75c0-1.69,0-3.39,0-5.08c0-0.63,0.16-0.79,0.79-0.79c1.01,0,2.02,0,3.03,0
			c0.51,0,0.71,0.19,0.71,0.69c0,3.46,0,6.92,0,10.38c0,0.49-0.21,0.69-0.71,0.69c-1.03,0-2.06,0-3.1,0c-0.52,0-0.72-0.2-0.72-0.72
			C3.64,18.2,3.64,16.47,3.64,14.75z"/>
		<path class="st0" d="M5.88,4.34c1.2,0.07,2.13,0.8,2.25,1.85c0.08,0.68-0.22,1.23-0.75,1.64c-0.9,0.69-2.34,0.6-3.16-0.18
			c-0.93-0.9-0.7-2.39,0.48-2.96C5.07,4.51,5.49,4.45,5.88,4.34z"/>
	</g>
</g>
</svg>
