<?xml version="1.0" encoding="utf-8"?>
<!-- Generator: Adobe Illustrator 24.1.0, SVG Export Plug-In . SVG Version: 6.00 Build 0)  -->
<svg version="1.1" id="Layer_1" xmlns="http://www.w3.org/2000/svg" xmlns:xlink="http://www.w3.org/1999/xlink" x="0px" y="0px"
	 viewBox="0 0 42 42" style="enable-background:new 0 0 42 42;" xml:space="preserve">
<style type="text/css">
	.st0{fill:none;stroke:#BA1BB3;stroke-miterlimit:10;}
	.st1{fill:none;stroke:#BA1BB3;stroke-width:0.5;stroke-miterlimit:10;}
</style>
<g>
	<g>
		<path class="st0" d="M-106.29,1.65c6.19,0,12.39,0,18.58,0c0.12,0.02,0.24,0.05,0.36,0.07c1.04,0.11,2.06,0.34,3,0.79
			c4.09,1.93,6.29,5.17,6.35,9.7c0.08,5.65,0.02,11.3,0.02,16.95c0,2.19-0.59,4.22-1.86,6c-2.16,3.03-5.13,4.54-8.84,4.55
			c-5.55,0.01-11.1,0.01-16.65,0c-0.71,0-1.45-0.04-2.14-0.19c-4.31-0.95-7.07-3.57-8.25-7.83c-0.15-0.56-0.21-1.14-0.31-1.71
			c0-6.19,0-12.39,0-18.58c0.06-0.39,0.1-0.78,0.19-1.17c0.97-4.31,3.58-7.08,7.84-8.26C-107.44,1.81-106.86,1.75-106.29,1.65z
			 M-81.34,20.71c0-2.76,0-5.52,0-8.29c0-0.87-0.09-1.73-0.38-2.56c-1.07-3.01-3.67-4.84-6.94-4.85c-5.55-0.01-11.1-0.02-16.65,0.01
			c-0.83,0-1.69,0.12-2.48,0.38c-3.04,1.02-4.86,3.66-4.86,6.95c-0.01,5.54-0.02,11.07,0.01,16.61c0,0.83,0.12,1.7,0.38,2.48
			c1.01,3.03,3.64,4.86,6.91,4.87c5.57,0.01,11.15,0.01,16.72,0c2.48,0,4.48-1,5.96-3c0.95-1.29,1.33-2.77,1.33-4.36
			C-81.35,26.21-81.34,23.46-81.34,20.71z"/>
		<path class="st0" d="M-97,30.48c-5.39-0.01-9.82-4.44-9.8-9.82c0.02-5.4,4.46-9.82,9.83-9.79c5.39,0.03,9.78,4.42,9.78,9.8
			C-87.18,26.06-91.62,30.49-97,30.48z M-90.57,20.69c0.02-3.53-2.86-6.42-6.41-6.44c-3.53-0.02-6.42,2.85-6.44,6.41
			c-0.02,3.53,2.85,6.42,6.41,6.44C-93.48,27.12-90.59,24.24-90.57,20.69z"/>
		<path class="st0" d="M-86.78,8.02c1.36,0,2.5,1.13,2.48,2.48c-0.02,1.35-1.13,2.45-2.47,2.45c-1.36,0-2.5-1.14-2.48-2.48
			C-89.24,9.12-88.13,8.02-86.78,8.02z"/>
	</g>
</g>
<g>
	<g>
		<path class="st0" d="M-56.95,19.63c0.1-0.72,0.19-1.45,0.3-2.17c0.46-2.83,1.54-5.41,3.16-7.76c2.45-3.56,5.73-6.06,9.79-7.51
			c2.76-0.98,5.61-1.26,8.52-0.99c3.63,0.34,6.89,1.62,9.81,3.79c3.55,2.64,5.94,6.09,7.21,10.33c0.81,2.72,0.99,5.49,0.59,8.3
			c-0.77,5.53-3.51,9.9-7.91,13.26c-1.59,1.22-3.39,2.09-5.29,2.74c-0.87,0.3-1.46-0.12-1.47-1.04c-0.01-1.71,0-3.43,0-5.14
			c0-0.85-0.05-1.71-0.42-2.49c-0.22-0.46-0.52-0.88-0.79-1.31c0.72-0.13,1.51-0.23,2.27-0.43c2.02-0.52,3.82-1.41,5.04-3.18
			c0.89-1.29,1.3-2.76,1.48-4.3c0.14-1.17,0.18-2.34-0.05-3.5c-0.25-1.29-0.81-2.44-1.67-3.43c-0.16-0.18-0.18-0.33-0.11-0.55
			c0.57-1.63,0.35-3.22-0.25-4.79c-0.04-0.1-0.2-0.19-0.32-0.2c-0.69-0.1-1.34,0.1-1.94,0.38c-1,0.47-1.96,1.01-2.95,1.5
			c-0.18,0.09-0.42,0.14-0.6,0.1c-3.08-0.77-6.16-0.77-9.25,0c-0.18,0.05-0.44-0.01-0.6-0.11c-1.26-0.8-2.58-1.44-4.03-1.82
			c-0.02-0.01-0.05-0.02-0.07-0.02c-0.92-0.19-1.09-0.09-1.35,0.82c-0.41,1.41-0.48,2.81,0.01,4.21c0.04,0.11,0,0.31-0.08,0.4
			c-1.66,1.89-2.04,4.12-1.81,6.53c0.13,1.41,0.47,2.76,1.1,4.03c0.89,1.79,2.4,2.88,4.22,3.51c1.08,0.38,2.24,0.53,3.37,0.79
			c0.06,0.01,0.12,0.02,0.13,0.02c-0.29,0.52-0.59,1.04-0.86,1.57c-0.09,0.18-0.16,0.39-0.17,0.59c-0.02,0.42-0.24,0.61-0.61,0.71
			c-1.25,0.34-2.5,0.56-3.69-0.18c-0.63-0.39-1.1-0.93-1.47-1.56c-0.57-0.97-1.37-1.68-2.45-2c-0.4-0.12-0.86-0.09-1.28-0.06
			c-0.26,0.02-0.35,0.23-0.17,0.45c0.18,0.22,0.35,0.47,0.58,0.6c1.06,0.62,1.66,1.59,2.13,2.66c0.27,0.61,0.53,1.22,1.05,1.69
			c0.83,0.75,1.83,1.03,2.91,1.08c0.93,0.04,1.87,0.01,2.86,0.01c0,0.56,0,1.21,0,1.87c0,0.5,0.02,1,0.02,1.51
			c0,0.93-0.61,1.37-1.49,1.08c-2.92-1-5.5-2.57-7.66-4.78c-2.09-2.15-3.69-4.62-4.68-7.46c-0.56-1.61-0.88-3.27-1.01-4.98
			c-0.01-0.15-0.04-0.3-0.06-0.45C-56.95,21.17-56.95,20.4-56.95,19.63z"/>
	</g>
</g>
<g>
	<g>
		<path class="st1" d="M1.64,20.46c0-4.78,0-9.56,0-14.33c0-3.07,1.94-5.02,5-5.02c9.65,0,19.3,0,28.95,0
			c2.39,0,4.23,1.36,4.76,3.54c0.1,0.42,0.14,0.87,0.14,1.31c0.01,9.69,0.01,19.38,0,29.08c0,2.83-1.99,4.83-4.82,4.84
			c-9.73,0.01-19.47,0.01-29.2,0c-2.83,0-4.83-2-4.84-4.82C1.63,30.18,1.64,25.32,1.64,20.46z M3.49,20.43c0,4.81,0,9.63,0,14.44
			c0,2.05,1.1,3.15,3.16,3.15c9.62,0,19.23,0,28.85,0c2.06,0,3.16-1.1,3.16-3.15c0-9.59,0-19.18,0-28.77c0-2.05-1.1-3.15-3.16-3.15
			c-9.62,0-19.23,0-28.85,0c-2.06,0-3.16,1.1-3.16,3.15C3.48,10.88,3.49,15.66,3.49,20.43z"/>
		<path class="st1" d="M22.93,16.05c1.08-0.34,2.12-0.8,3.21-0.98c4.2-0.68,7.67,1.74,8.52,5.89c0.18,0.89,0.26,1.82,0.27,2.73
			c0.03,3.11,0.01,6.23,0.01,9.34c0,1.01-0.29,1.3-1.32,1.3c-1.62,0-3.24,0-4.86,0c-0.92,0-1.23-0.32-1.24-1.23
			c0-2.91,0.02-5.82-0.02-8.73c-0.01-0.6-0.12-1.22-0.33-1.78c-0.35-0.92-1.14-1.23-2.1-1.22c-0.94,0.01-1.57,0.46-1.87,1.31
			c-0.18,0.52-0.29,1.09-0.3,1.64c-0.03,2.93-0.01,5.85-0.01,8.78c0,0.93-0.3,1.23-1.22,1.23c-1.65,0-3.31,0-4.96,0
			c-0.9,0-1.21-0.3-1.21-1.19c0-5.66,0-11.33,0-16.99c0-0.9,0.29-1.19,1.19-1.19c1.62,0,3.24,0,4.86,0
			C22.62,14.96,22.84,15.16,22.93,16.05z"/>
		<path class="st1" d="M7.19,24.63c0-2.79,0-5.58,0-8.37c0-1.03,0.27-1.31,1.3-1.31c1.65,0,3.31,0,4.96,0
			c0.83,0,1.15,0.32,1.16,1.14c0,5.7,0,11.39,0,17.09c0,0.8-0.34,1.14-1.17,1.14c-1.69,0.01-3.38,0.01-5.06,0
			c-0.85,0-1.18-0.33-1.18-1.18C7.18,30.31,7.19,27.47,7.19,24.63z"/>
		<path class="st1" d="M10.86,7.48c1.96,0.11,3.49,1.32,3.69,3.05c0.13,1.13-0.36,2.02-1.23,2.7c-1.47,1.14-3.82,0.99-5.17-0.3
			C6.62,11.45,6.99,9,8.93,8.05C9.52,7.76,10.21,7.66,10.86,7.48z"/>
	</g>
</g>
<g>
	<g>
		<path class="st1" d="M60.5,35.82c5.9,0.65,10.96-1.34,14.31-4.01c-4.45-0.35-7.45-2.62-9.08-6.82c1.5,0.27,2.93,0.23,4.4-0.15
			c-2.99-0.72-5.22-2.37-6.66-5.05c-0.77-1.44-1.12-2.99-1.12-4.66c1.37,0.74,2.8,1.15,4.38,1.22c-0.35-0.27-0.66-0.49-0.95-0.75
			c-1.71-1.51-2.79-3.39-3.19-5.64c-0.4-2.27-0.04-4.42,1.05-6.45c0.11-0.2,0.11-0.2,0.26-0.03c1.65,2,3.54,3.73,5.67,5.19
			c2.3,1.58,4.78,2.79,7.45,3.62c1.7,0.53,3.44,0.9,5.21,1.08c0.48,0.05,0.95,0.1,1.43,0.12c0.15,0.01,0.19-0.02,0.16-0.18
			c-0.6-3.23,0.13-6.11,2.33-8.58c1.59-1.78,3.6-2.84,5.96-3.12c3.14-0.37,5.88,0.54,8.15,2.76c0.18,0.18,0.33,0.22,0.58,0.16
			c1.99-0.44,3.88-1.17,5.65-2.19c0.05-0.03,0.11-0.06,0.21-0.11c-0.77,2.3-2.16,4.05-4.16,5.35c1.89-0.21,3.69-0.72,5.47-1.5
			c-0.25,0.41-0.52,0.76-0.79,1.11c-1.13,1.46-2.44,2.74-3.92,3.84c-0.12,0.09-0.16,0.18-0.16,0.33c0.17,4.46-0.75,8.71-2.59,12.76
			c-1.31,2.88-3.05,5.48-5.24,7.78c-2.02,2.12-4.33,3.87-6.93,5.22c-2.37,1.24-4.88,2.07-7.5,2.56c-1.26,0.23-2.53,0.37-3.8,0.44
			c-0.95,0.05-1.89,0.06-2.84,0.02c-2.29-0.09-4.54-0.46-6.74-1.12c-2.4-0.72-4.67-1.74-6.79-3.07c-0.06-0.04-0.13-0.08-0.19-0.13
			C60.51,35.85,60.51,35.83,60.5,35.82z"/>
	</g>
</g>
</svg>
