<?xml version="1.0" encoding="utf-8"?>
<!-- Generator: Adobe Illustrator 24.1.0, SVG Export Plug-In . SVG Version: 6.00 Build 0)  -->
<svg version="1.1" id="Layer_1" xmlns="http://www.w3.org/2000/svg" xmlns:xlink="http://www.w3.org/1999/xlink" x="0px" y="0px"
	 viewBox="0 0 308 45.91" style="enable-background:new 0 0 308 45.91;" xml:space="preserve">
<style type="text/css">
	.st0{fill:none;stroke:#04D9D9;stroke-miterlimit:10;}
	.st1{fill:#04D9D9;}
</style>
<g>
	<g>
		<path class="st0" d="M237.24,26.12c4.11-2.91,4.42-8.61,1.57-12.54c-2.55-3.51-7.12-4.96-11.67-3.69
			c-4.43,1.23-7.52,4.84-8.1,9.23c-1.59,12.04,9.51,17,19.09,13.69c0.6-0.21,1.21-0.73,1.75-0.64c0.58,0.09,1.38,0.63,1.52,1.14
			c0.12,0.41-0.47,1.24-0.96,1.57c-4.95,3.3-14.05,2.84-19.32-0.91c-5.07-3.61-7.31-10.19-5.88-16.64
			c1.34-6.08,5.11-9.69,11.03-10.96c5.89-1.26,11.42-0.57,15.54,4.47c4.7,5.75,3.15,15.56-2.86,18.46
			c-4.13,1.99-5.62,1.07-5.64-3.49c0-1.45-0.01-2.9,0-4.35c0.02-1.91-0.84-3.15-2.77-3.39c-1.95-0.24-3.42,0.9-3.46,2.61
			c-0.03,1.34,1.02,2.8,1.86,4.02c0.42,0.61,1.79,0.63,2.11,1.25c0.36,0.68,0.33,1.95-0.11,2.55c-0.37,0.51-1.58,0.68-2.37,0.57
			c-3.83-0.49-6-3.86-5.63-8.52c0.34-4.21,3.25-6.92,7.3-6.8c4.32,0.13,6.9,2.68,7,6.98C237.27,22.31,237.24,23.88,237.24,26.12z"/>
		<path class="st0" d="M174.44,36.02c2.28,0.15,4.43,0.43,6.57,0.38c3.04-0.07,4.46-1.57,4.52-4.59c0.06-2.99,0.06-5.98,0-8.97
			c-0.06-3.3-1.82-5.19-4.67-5.16c-2.52,0.03-4.54,2.14-4.57,4.78c-0.03,2.87,1.89,4.67,5.06,4.74c0.62,0.01,1.24,0.06,1.82,0.09
			c1.2,4.48,0.06,5.81-4.15,4.99c-5.24-1.02-8.25-5.39-7.61-11.08c0.58-5.19,4.77-8.91,9.76-8.67c5.35,0.26,9.15,4.28,9.2,9.78
			c0.03,3.26,0.06,6.52-0.01,9.78c-0.12,5.73-2.91,8.7-8.56,9.17c-1.17,0.1-2.35,0.07-3.52-0.01
			C173.97,40.95,173.74,40.64,174.44,36.02z"/>
		<path class="st0" d="M151.78,17.73c-0.66,0.03-1.36,0.07-2.06,0.1c-3.1,0.15-5.07,2.23-4.95,5.24c0.11,2.75,2.01,4.79,4.51,4.84
			c2.89,0.05,4.72-1.96,4.74-5.37c0.04-5.07,0.07-10.13-0.01-15.2c-0.03-1.94,0.33-3.04,2.65-3.01c2.17,0.03,2.53,1.01,2.5,2.86
			c-0.08,5.25,0.09,10.5-0.06,15.74c-0.23,7.99-7.8,12.64-14.42,8.95c-3.6-2-5.55-6.76-4.64-11.28c0.86-4.23,4.14-7.43,8.2-7.99
			C151.82,12.11,152.7,13.34,151.78,17.73z"/>
		<path class="st0" d="M267.01,25.45c-2.81-2.34-2.82-2.67-0.39-4.61c0.63-0.51,1.25-1.04,1.83-1.6c0.16-0.16,0.17-0.48,0.29-0.85
			c-1.76-1.42-3.41-0.87-4.86,0.34c-2.32,1.92-2.3,5.83-0.08,8.01c2.2,2.16,5.99,2.17,7.6-0.52c1.64-2.75,3.48-2.17,5.66-1.53
			c-0.02,3.83-3.18,7.29-7.42,8.26c-4.8,1.1-9.55-1.17-11.52-5.5c-2.02-4.44-0.63-10.32,3.09-13c3.9-2.81,9.81-2.4,13.29,0.92
			c2.17,2.07,2.14,2.86-0.21,4.62C271.91,21.79,269.52,23.57,267.01,25.45z"/>
		<path class="st0" d="M298.33,19.08c1.26,0.73,2.63,1.31,3.75,2.21c1.62,1.31,3.74,2.59,4.44,4.36c1.34,3.4-1.29,6.57-5.15,6.86
			c-1.89,0.14-3.8-0.02-5.69,0.07c-1.6,0.08-2.51-0.23-2.51-2.17c0-1.85,0.73-2.4,2.42-2.29c1.26,0.08,2.54,0.1,3.79-0.06
			c0.63-0.08,1.71-0.62,1.7-0.92c-0.02-0.67-0.45-1.54-0.99-1.94c-1.15-0.85-2.49-1.45-3.74-2.17c-2.15-1.24-3.35-2.94-2.84-5.58
			c0.54-2.76,2.43-3.92,4.96-4.21c1.52-0.18,3.07-0.02,4.6-0.13c1.69-0.12,2.74,0.2,2.74,2.28c0,2-0.88,2.46-2.65,2.38
			c-1.51-0.07-3.04,0.14-4.56,0.23C298.49,18.36,298.41,18.72,298.33,19.08z"/>
		<path class="st0" d="M208.24,7.82c0,1.54-0.13,2.64,0.05,3.68c0.1,0.57,0.72,1.49,1.12,1.5c3.89,0.09,2.36,2.62,2.35,4.78
			c-3.58-0.55-3.8,1.55-3.55,4.09c0.1,1.07-0.22,2.25,0.09,3.23c0.31,0.96,1.12,2.38,1.84,2.47c2.58,0.31,1.74,2.1,1.81,3.46
			c0.1,1.9-1.39,1.52-2.5,1.53c-3.98,0.03-5.91-1.65-6.02-5.67c-0.16-5.69-0.2-11.39-0.03-17.08
			C203.51,6.25,206.17,8.26,208.24,7.82z"/>
		<path class="st0" d="M249.08,32.7c0-9.28,0.02-17.95-0.02-26.62c-0.01-1.85,1.22-1.69,2.4-1.69c1.17,0,2.44-0.19,2.43,1.66
			c-0.03,8.24,0.12,16.48-0.07,24.71C253.75,34.18,251,31.9,249.08,32.7z"/>
		<path class="st0" d="M285.29,15.56c1.91-1.08,3.59-2.03,5.4-3.05c1.31,4.18,1.05,4.69-2.05,5.95c-1.87,0.76-2.72,2.28-2.72,4.3
			c0.01,2.63-0.09,5.26,0.02,7.88c0.09,2.21-1.36,1.91-2.71,1.93c-1.41,0.03-2.72,0.15-2.68-1.98c0.09-4.8,0-9.6,0.04-14.41
			c0.01-1.33-0.55-2.97,1.87-3.1C284.58,12.97,285.54,13.68,285.29,15.56z"/>
		<path class="st0" d="M167.96,22.99c0,2.44-0.1,4.88,0.03,7.31c0.1,1.84-0.65,2.35-2.36,2.3c-1.53-0.04-2.58-0.12-2.54-2.13
			c0.11-5.06,0.1-10.12,0-15.17c-0.04-1.94,0.93-2.18,2.52-2.2c1.69-0.02,2.48,0.46,2.39,2.3
			C167.86,17.92,167.96,20.46,167.96,22.99z"/>
		<path class="st0" d="M199.53,32.28c-4.85,0.63-4.85,0.63-4.85-3.7c0-4.52,0.04-9.05-0.01-13.57c-0.02-1.66,0.89-2.15,2.22-1.84
			c0.94,0.22,2.52,0.88,2.53,1.38C199.59,20.42,199.53,26.28,199.53,32.28z"/>
		<path class="st0" d="M167.92,7.06c0.42,2.26-1.08,2.14-2.61,2.25c-2.16,0.15-2.16-1.1-2.23-2.69c-0.1-2.12,1.04-2.24,2.68-2.27
			C167.83,4.31,168.2,5.38,167.92,7.06z"/>
		<path class="st0" d="M199.9,9.7c-2.29-0.52-3.98-0.48-4.96-1.29c-0.57-0.47-0.45-2.89,0.18-3.4c0.83-0.67,3.1-0.89,3.64-0.3
			C199.58,5.61,199.45,7.38,199.9,9.7z"/>
	</g>
</g>
<g>
	<path class="st1" d="M86.34,13.46c-1.92-0.22-2.67-1.24-2.48-3.17c0.15-1.47,0.03-2.97,0.03-4.46c-0.3-0.04-0.6-0.08-0.89-0.12
		c-0.68,1.94-1.3,3.91-2.09,5.81c-0.25,0.61-0.95,1.03-1.44,1.54c-0.48-0.52-1.15-0.97-1.39-1.59c-0.72-1.84-1.28-3.75-1.9-5.63
		c-0.24,0.03-0.49,0.06-0.73,0.09c0,1.89,0.07,3.79-0.05,5.67c-0.03,0.48-0.68,0.91-1.05,1.37c-0.33-0.41-0.92-0.81-0.93-1.24
		c-0.09-2.43-0.12-4.88,0.03-7.3c0.03-0.52,0.95-1.43,1.38-1.39c0.91,0.1,2.2,0.48,2.56,1.16c0.85,1.59,1.26,3.42,2.11,5.96
		c0.62-1.51,1.12-2.29,1.25-3.14c0.5-3.25,2.19-4.79,5.59-4.15C86.34,6.41,86.34,9.93,86.34,13.46z"/>
	<path class="st1" d="M3.33,2.89c2.66,0,5.31,0,7.97,0c0.13,0.35,0.26,0.71,0.39,1.06C7.92,4.17,8.63,6.69,8.6,8.81
		c-0.02,0.98,0.08,1.97-0.08,2.93c-0.07,0.45-0.61,0.83-0.93,1.25c-0.38-0.46-1.03-0.89-1.08-1.38c-0.15-1.45-0.16-2.94-0.05-4.4
		c0.19-2.41-0.78-3.28-3.13-2.57C3.33,4.06,3.33,3.48,3.33,2.89z"/>
	<path class="st1" d="M45.07,22.18c13.25-0.05,25.12,4.17,35.2,13.1c1.17,1.04,2.31,2.17,3.17,3.45c0.54,0.8,0.52,1.96,0.75,2.96
		c-1.08,0.22-2.24,0.83-3.21,0.61c-4.22-0.95-8.35-2.25-12.56-3.21c-18.96-4.29-37.72-3.35-56.28,2.29
		c-1.41,0.43-2.83,0.9-4.27,1.14c-2.17,0.36-3.31-1.05-2.31-2.97c0.66-1.27,1.69-2.41,2.75-3.4C18.56,26.59,30.83,22.1,45.07,22.18z
		"/>
	<path class="st1" d="M69.2,7.83c0.04,3.47-1.79,5.43-5.09,5.43c-3.16,0-5.13-1.91-5.24-5.09c-0.12-3.3,1.87-5.52,5.04-5.64
		C67.11,2.41,69.16,4.46,69.2,7.83z M67.49,8.55c-0.81-2.41-1.12-4.3-3.48-4.24c-2.12,0.05-2.68,1.7-2.72,3.48
		c-0.04,1.91,0.62,3.9,2.71,3.72C65.25,11.41,66.34,9.6,67.49,8.55z"/>
	<path class="st1" d="M21.96,4.07c-0.91,0.1-1.85,0.09-2.7,0.35c-0.63,0.19-1.15,0.74-1.72,1.13c0.55,0.53,1.01,1.28,1.66,1.53
		c0.82,0.31,1.8,0.22,2.71,0.3c0.01,0.3,0.02,0.6,0.04,0.9c-0.85,0.1-1.74,0.06-2.52,0.33c-0.7,0.25-1.28,0.83-1.91,1.27
		c0.59,0.6,1.08,1.48,1.8,1.74c0.93,0.34,2.04,0.2,3.07,0.26c-0.03,0.41-0.05,0.81-0.08,1.22c-2.21-0.13-4.41-0.27-6.62-0.4
		c-0.03-3.07-0.38-6.21,0.2-9.17c0.11-0.58,3.87-0.45,5.94-0.65C21.88,3.28,21.92,3.67,21.96,4.07z"/>
	<path class="st1" d="M43.95,7.43c-1.11,2.3-4.92-0.44-4.38,2.88c0.15,0.91,2.66,1.45,4.63,2.42c-2.34,0.65-5.81,1.11-6.22-0.01
		c-0.99-2.74-0.93-6.06-0.37-8.97c0.13-0.68,3.95-0.66,6.07-0.97c0.06,0.42,0.12,0.84,0.18,1.26c-0.99,0.11-2.02,0.09-2.95,0.38
		c-0.59,0.18-1.02,0.83-1.52,1.28c0.49,0.47,0.91,1.18,1.49,1.37C41.77,7.37,42.79,7.32,43.95,7.43z"/>
	<path class="st1" d="M56.43,4.18c-3.5-0.02-6.52,0.08-6.38,4.09c0.08,2.41,1.82,3.43,5.7,3.57c0.07,0.26,0.13,0.53,0.2,0.79
		c-1.18,0.2-2.39,0.67-3.52,0.53c-2.7-0.34-4.57-1.89-4.82-4.69c-0.21-2.28,0.61-4.3,2.9-5.24C52.3,2.5,54.28,1.83,56.43,4.18z"/>
	<path class="st1" d="M33.83,12.21c-4.37,2.35-6.57,1.22-6.57-3.06c0-1.56-0.08-3.13,0.06-4.69c0.05-0.5,0.68-0.95,1.04-1.42
		c0.46,0.49,1.14,0.91,1.33,1.48c0.24,0.71,0.07,1.55,0.07,2.33C29.77,10.98,29.77,10.98,33.83,12.21z"/>
</g>
</svg>
