<?xml version="1.0" encoding="utf-8"?>
<!-- Generator: Adobe Illustrator 24.1.0, SVG Export Plug-In . SVG Version: 6.00 Build 0)  -->
<svg version="1.1" id="Layer_1" xmlns="http://www.w3.org/2000/svg" xmlns:xlink="http://www.w3.org/1999/xlink" x="0px" y="0px"
	 viewBox="0 0 24 24" style="enable-background:new 0 0 24 24;" xml:space="preserve">
<style type="text/css">
	.st0{fill:none;stroke:#BA1BB3;stroke-width:0.75;stroke-miterlimit:10;}
</style>
<g>
	<g>
		<path class="st0" d="M0.72,19.75c2.77,0.34,5.14-0.69,6.71-2.08c-2.09-0.18-3.49-1.36-4.26-3.53c0.7,0.14,1.37,0.12,2.06-0.08
			c-1.4-0.37-2.45-1.23-3.12-2.61C1.75,10.7,1.59,9.9,1.59,9.03c0.64,0.38,1.31,0.6,2.06,0.63C3.48,9.53,3.34,9.41,3.2,9.28
			C2.4,8.5,1.89,7.53,1.7,6.36C1.51,5.19,1.68,4.07,2.2,3.02c0.05-0.11,0.05-0.1,0.12-0.01C3.09,4.04,3.98,4.94,4.98,5.7
			c1.08,0.82,2.24,1.45,3.49,1.87c0.8,0.27,1.61,0.47,2.44,0.56c0.22,0.03,0.45,0.05,0.67,0.06c0.07,0,0.09-0.01,0.07-0.09
			c-0.28-1.67,0.06-3.17,1.09-4.44c0.75-0.92,1.69-1.47,2.8-1.62c1.47-0.19,2.76,0.28,3.82,1.43c0.09,0.09,0.16,0.11,0.27,0.09
			c0.94-0.23,1.82-0.6,2.65-1.13c0.03-0.02,0.05-0.03,0.1-0.06c-0.36,1.19-1.01,2.1-1.95,2.77c0.89-0.11,1.73-0.37,2.56-0.78
			c-0.12,0.21-0.24,0.39-0.37,0.57c-0.53,0.76-1.14,1.42-1.84,1.99c-0.06,0.05-0.08,0.09-0.07,0.17c0.08,2.31-0.35,4.51-1.22,6.61
			c-0.62,1.49-1.43,2.84-2.46,4.03c-0.95,1.1-2.03,2-3.25,2.71c-1.11,0.64-2.29,1.07-3.52,1.33c-0.59,0.12-1.18,0.19-1.78,0.23
			C8.05,22.02,7.61,22.02,7.17,22c-1.08-0.05-2.13-0.24-3.16-0.58c-1.13-0.37-2.19-0.9-3.19-1.59c-0.03-0.02-0.06-0.04-0.09-0.06
			C0.72,19.76,0.72,19.76,0.72,19.75z"/>
	</g>
</g>
</svg>
